<?xml version="1.0" standalone="no"?>
<!DOCTYPE svg PUBLIC "-//W3C//DTD SVG 20010904//EN"
 "http://www.w3.org/TR/2001/REC-SVG-20010904/DTD/svg10.dtd">
<svg version="1.0" xmlns="http://www.w3.org/2000/svg"
 width="784.000000pt" height="784.000000pt" viewBox="0 0 784.000000 784.000000"
 preserveAspectRatio="xMidYMid meet">
<metadata>
Created by potrace 1.11, written by Peter Selinger 2001-2013
</metadata>
<g transform="translate(0.000000,784.000000) scale(0.100000,-0.100000)"
fill="#000000" stroke="none">
<path d="M0 3920 l0 -3920 3920 0 3920 0 0 3920 0 3920 -3920 0 -3920 0 0
-3920z m5751 2520 l58 0 -5 -97 c-22 -416 -38 -610 -68 -781 -33 -199 -110
-331 -333 -577 -186 -206 -267 -310 -335 -430 -94 -167 -126 -310 -114 -520 4
-66 11 -138 16 -160 5 -22 11 -57 14 -78 4 -22 13 -70 22 -109 9 -38 14 -71
12 -73 -8 -8 -114 70 -169 124 -226 227 -350 577 -351 996 0 183 11 292 47
455 57 257 151 485 288 694 161 246 381 432 601 511 94 33 214 57 244 49 8 -2
40 -4 73 -4z m324 -105 c94 -63 199 -170 263 -270 30 -46 112 -225 132 -285
227 -700 -45 -1645 -594 -2061 -166 -125 -341 -189 -522 -189 l-103 0 -11 43
c-6 23 -19 76 -30 117 -38 148 -59 344 -51 480 6 110 11 134 41 204 48 114
157 267 299 421 325 351 414 518 450 840 7 55 16 134 21 175 5 41 12 117 14
168 3 51 8 96 10 100 2 4 6 61 7 127 3 118 7 165 16 165 3 0 28 -16 58 -35z
m-2800 -526 c284 -42 510 -145 676 -309 81 -80 103 -109 138 -181 22 -47 41
-90 41 -96 0 -7 -16 -17 -35 -23 -20 -6 -104 -45 -188 -85 -174 -83 -299 -135
-507 -212 -142 -52 -185 -62 -300 -68 -114 -6 -254 15 -470 69 -282 71 -463
100 -560 91 -25 -2 -74 -7 -110 -10 -36 -3 -83 -12 -106 -19 -72 -26 -249
-112 -263 -129 -7 -9 -17 -17 -22 -17 -15 0 -107 -68 -201 -147 -48 -40 -91
-73 -94 -73 -14 0 9 140 37 225 153 459 679 843 1323 966 61 12 154 25 206 29
110 10 333 4 435 -11z m891 -879 c-22 -272 -210 -560 -503 -778 -285 -210
-593 -333 -973 -387 -58 -8 -172 -15 -254 -15 -513 0 -919 189 -1082 505 l-49
96 30 26 c17 14 55 49 86 77 52 49 118 102 169 136 13 8 35 24 49 35 66 52
217 130 291 150 84 22 262 18 405 -9 133 -26 144 -29 275 -63 182 -49 260 -62
410 -70 117 -6 221 5 302 31 24 7 63 19 88 25 25 7 59 19 75 26 120 52 154 65
164 65 6 0 48 18 94 39 45 21 100 46 122 54 22 8 78 33 125 55 47 21 105 49
130 60 25 12 47 21 49 22 2 0 1 -36 -3 -80z m-4 -1104 c119 -30 241 -92 314
-159 l54 -49 -52 -62 c-29 -33 -55 -63 -58 -66 -3 -3 -23 -27 -45 -55 -46 -58
-80 -98 -151 -174 -28 -31 -78 -85 -110 -121 -89 -97 -223 -222 -277 -259 -67
-46 -189 -100 -277 -122 -41 -11 -185 -42 -320 -69 -334 -67 -412 -92 -571
-186 -142 -83 -274 -244 -395 -481 -28 -57 -59 -120 -67 -140 l-15 -38 -16 38
c-50 115 -66 335 -37 496 80 446 419 905 891 1208 200 128 499 236 740 267 90
11 296 -3 392 -28z m521 -463 c37 -108 51 -210 44 -328 -27 -474 -358 -983
-852 -1309 -237 -157 -459 -247 -716 -292 -134 -23 -384 -15 -489 16 -106 31
-226 92 -289 148 l-54 48 16 34 c8 19 32 73 52 120 81 189 196 370 300 474 59
59 241 140 405 180 80 19 174 40 210 46 320 54 517 123 668 235 84 61 288 261
364 355 34 41 69 81 78 87 10 7 42 43 71 80 29 38 63 77 74 88 11 11 33 37 49
58 16 20 32 37 35 37 4 0 20 -35 34 -77z"/>
</g>
</svg>
